# xmcd
#
# Track frame offsets: 
#        150
#        13105
#        28480
#        46053
#        60302
#        77565
#        95786
#        114693
#        131748
#        147412
#        164916
#        202880
#        235775
#        250357
#        267076
#        282668
#        301970
#        321365
#        338592
#
# Disc length: 4759 seconds
#
# Revision: 0
# Processed by: cddbd v1.5.2PL0 Copyright (c) Steve Scherf et al.
# Submitted via: ExactAudioCopy v1.0b3
#
DISCID=1c129513
DTITLE=Samantha Sang - Emotion - From Dance To Love
DYEAR=2008
DGENRE=Disco
TTITLE0=You Keep Me Dancing
TTITLE1=Charade
TTITLE2=Emotion
TTITLE3=Change Of Heart
TTITLE4=Living Without Your Love
TTITLE5=La La La I Love You
TTITLE6=But If She Moves You
TTITLE7=When Love Is Gone
TTITLE8=I Don't Wanna Go
TTITLE9=The Love Of A Woman
TTITLE10=From Dance To Love
TTITLE11=In The Midnight Hour
TTITLE12=Now
TTITLE13=Take A Chance
TTITLE14=It's The Falling In Love
TTITLE15=I'll Never Get Enough Of You
TTITLE16=I Can Still Remember
TTITLE17=Moments
TTITLE18=This Is Love
EXTD=
EXTT0=
EXTT1=
EXTT2=
EXTT3=
EXTT4=
EXTT5=
EXTT6=
EXTT7=
EXTT8=
EXTT9=
EXTT10=
EXTT11=
EXTT12=
EXTT13=
EXTT14=
EXTT15=
EXTT16=
EXTT17=
EXTT18=
PLAYORDER=
